<?xml version="1.0" standalone="no"?>
<!DOCTYPE svg PUBLIC "-//W3C//DTD SVG 20010904//EN"
 "http://www.w3.org/TR/2001/REC-SVG-20010904/DTD/svg10.dtd">
<svg version="1.0" xmlns="http://www.w3.org/2000/svg"
 width="16.000000pt" height="16.000000pt" viewBox="0 0 16.000000 16.000000"
 preserveAspectRatio="xMidYMid meet">
<metadata>
Created by potrace 1.11, written by Peter Selinger 2001-2013
</metadata>
<g transform="translate(0.000000,16.000000) scale(0.009581,-0.009581)"
fill="#000000" stroke="none">
<path d="M806 1625 c-17 -40 -17 -40 -57 -19 -17 8 -33 14 -35 11 -2 -2 3 -21
11 -42 9 -20 15 -38 13 -39 -2 -2 -18 -8 -35 -15 -18 -8 -33 -17 -33 -21 0 -4
15 -13 33 -21 17 -7 33 -13 35 -14 1 -1 -5 -18 -13 -38 -8 -20 -15 -39 -15
-41 0 -3 19 1 42 10 22 8 42 13 43 12 1 -2 7 -16 12 -32 12 -37 29 -44 37 -14
12 46 20 51 59 35 43 -18 49 -14 31 21 -21 40 -18 49 21 63 19 7 35 16 35 20
0 4 -16 13 -35 19 -40 13 -40 15 -20 64 18 41 19 41 -28 21 -47 -19 -44 -21
-57 20 -6 19 -16 35 -21 35 -5 0 -15 -16 -23 -35z"/>
<path d="M442 1588 c-23 -11 -38 -46 -30 -70 3 -7 -21 -31 -51 -53 -150 -106
-250 -248 -311 -440 -28 -89 -35 -268 -16 -370 18 -89 64 -210 93 -241 20 -21
25 -23 44 -12 18 11 23 10 37 -11 9 -13 31 -40 49 -60 37 -41 39 -49 18 -57
-26 -10 -16 -40 23 -75 55 -48 81 -69 87 -69 3 0 22 -11 43 -23 145 -92 378
-129 565 -90 130 27 270 96 372 185 39 35 39 35 22 62 -16 24 -16 28 -1 51 9
14 19 25 23 25 3 0 15 16 25 35 21 38 27 41 57 25 25 -14 42 7 81 94 86 195
81 456 -12 655 -57 122 -171 255 -277 326 -35 23 -42 32 -37 51 9 34 -35 74
-81 74 -29 0 -39 -6 -55 -32 -11 -18 -22 -45 -26 -61 -3 -15 -12 -40 -20 -55
-45 -87 -11 -159 47 -99 l22 22 -6 -23 c-4 -18 1 -26 26 -38 17 -9 62 -48 101
-88 123 -124 177 -259 171 -429 -3 -90 -6 -111 -23 -172 -7 -26 -13 -30 -38
-27 -26 2 -33 -5 -71 -65 -23 -38 -64 -91 -92 -119 -44 -44 -49 -53 -36 -64
27 -22 16 -37 -57 -74 -139 -69 -263 -85 -418 -53 -56 12 -133 44 -183 76 -35
23 -36 25 -21 42 16 17 14 21 -31 71 -27 29 -68 83 -92 120 -37 57 -47 66 -70
65 -43 -3 -57 49 -58 213 0 116 3 144 22 194 46 120 128 227 228 296 29 20 45
39 46 53 1 16 3 17 6 5 8 -32 65 -34 77 -2 3 8 -7 52 -23 98 -32 93 -48 127
-65 138 -16 11 -57 9 -84 -4z"/>
<path d="M452 1182 l-43 -3 1 -255 c1 -275 6 -310 58 -407 69 -129 231 -238
354 -239 106 0 203 48 296 146 43 46 122 176 107 176 -3 0 0 10 6 23 9 15 13
101 14 289 l2 268 -376 2 c-207 2 -395 2 -419 0z"/>
</g>
</svg>
